<mxfile host="65bd71144e">
    <diagram id="1Bj1WPNLd9DL9Cp5C7SD" name="ex2-1">
        <mxGraphModel dx="1128" dy="722" grid="1" gridSize="10" guides="1" tooltips="1" connect="1" arrows="1" fold="1" page="1" pageScale="1" pageWidth="850" pageHeight="1100" math="0" shadow="0">
            <root>
                <mxCell id="0"/>
                <mxCell id="1" parent="0"/>
                <mxCell id="2" value="&lt;font style=&quot;font-size: 26px&quot;&gt;health_units&lt;br&gt;&lt;/font&gt;" style="shape=cloud;whiteSpace=wrap;html=1;" vertex="1" parent="1">
                    <mxGeometry x="290" y="30" width="240" height="120" as="geometry"/>
                </mxCell>
                <mxCell id="3" value="&lt;font style=&quot;font-size: 26px&quot;&gt;doctor&lt;br&gt;&lt;/font&gt;" style="shape=cloud;whiteSpace=wrap;html=1;" vertex="1" parent="1">
                    <mxGeometry x="290" y="180" width="240" height="120" as="geometry"/>
                </mxCell>
                <mxCell id="4" value="&lt;font style=&quot;font-size: 26px&quot;&gt;patients&lt;br&gt;&lt;/font&gt;" style="shape=cloud;whiteSpace=wrap;html=1;" vertex="1" parent="1">
                    <mxGeometry x="235" y="310" width="330" height="120" as="geometry"/>
                </mxCell>
                <mxCell id="5" value="&lt;font style=&quot;font-size: 26px&quot;&gt;interventions&lt;br&gt;&lt;br&gt;&lt;/font&gt;" style="shape=cloud;whiteSpace=wrap;html=1;" vertex="1" parent="1">
                    <mxGeometry x="290" y="470" width="240" height="120" as="geometry"/>
                </mxCell>
            </root>
        </mxGraphModel>
    </diagram>
    <diagram id="YMGu4bMk_sXiG3iSByeE" name="ex2-2">
        <mxGraphModel dx="1128" dy="722" grid="1" gridSize="10" guides="1" tooltips="1" connect="1" arrows="1" fold="1" page="1" pageScale="1" pageWidth="850" pageHeight="1100" math="0" shadow="0">
            <root>
                <mxCell id="vepGdTyIhbDHy5M-trmz-0"/>
                <mxCell id="vepGdTyIhbDHy5M-trmz-1" parent="vepGdTyIhbDHy5M-trmz-0"/>
                <mxCell id="vepGdTyIhbDHy5M-trmz-17" style="edgeStyle=none;html=1;entryX=0.962;entryY=0.674;entryDx=0;entryDy=0;entryPerimeter=0;fontSize=16;startArrow=baseDash;startFill=0;exitX=0;exitY=0;exitDx=0;exitDy=0;endArrow=none;endFill=0;" edge="1" parent="vepGdTyIhbDHy5M-trmz-1" source="vepGdTyIhbDHy5M-trmz-2" target="vepGdTyIhbDHy5M-trmz-3">
                    <mxGeometry relative="1" as="geometry"/>
                </mxCell>
                <mxCell id="vepGdTyIhbDHy5M-trmz-18" style="edgeStyle=none;html=1;entryX=0;entryY=0.5;entryDx=0;entryDy=0;fontSize=16;endArrow=none;endFill=0;" edge="1" parent="vepGdTyIhbDHy5M-trmz-1" source="vepGdTyIhbDHy5M-trmz-2" target="vepGdTyIhbDHy5M-trmz-5">
                    <mxGeometry relative="1" as="geometry"/>
                </mxCell>
                <mxCell id="vepGdTyIhbDHy5M-trmz-19" style="edgeStyle=none;html=1;entryX=0.009;entryY=0.366;entryDx=0;entryDy=0;entryPerimeter=0;fontSize=16;endArrow=none;endFill=0;" edge="1" parent="vepGdTyIhbDHy5M-trmz-1" source="vepGdTyIhbDHy5M-trmz-2" target="vepGdTyIhbDHy5M-trmz-6">
                    <mxGeometry relative="1" as="geometry"/>
                </mxCell>
                <mxCell id="vepGdTyIhbDHy5M-trmz-20" style="edgeStyle=none;html=1;entryX=1;entryY=0.5;entryDx=0;entryDy=0;fontSize=16;endArrow=none;endFill=0;" edge="1" parent="vepGdTyIhbDHy5M-trmz-1" source="vepGdTyIhbDHy5M-trmz-2" target="vepGdTyIhbDHy5M-trmz-4">
                    <mxGeometry relative="1" as="geometry"/>
                </mxCell>
                <mxCell id="vepGdTyIhbDHy5M-trmz-21" style="edgeStyle=none;html=1;fontSize=16;endArrow=none;endFill=0;" edge="1" parent="vepGdTyIhbDHy5M-trmz-1" source="vepGdTyIhbDHy5M-trmz-2" target="vepGdTyIhbDHy5M-trmz-7">
                    <mxGeometry relative="1" as="geometry"/>
                </mxCell>
                <mxCell id="vepGdTyIhbDHy5M-trmz-32" value="" style="edgeStyle=none;html=1;fontSize=16;endArrow=none;endFill=0;" edge="1" parent="vepGdTyIhbDHy5M-trmz-1" source="vepGdTyIhbDHy5M-trmz-2" target="vepGdTyIhbDHy5M-trmz-31">
                    <mxGeometry relative="1" as="geometry"/>
                </mxCell>
                <mxCell id="vepGdTyIhbDHy5M-trmz-2" value="patient" style="rounded=0;whiteSpace=wrap;html=1;fontSize=26;" vertex="1" parent="vepGdTyIhbDHy5M-trmz-1">
                    <mxGeometry x="340" y="110" width="120" height="60" as="geometry"/>
                </mxCell>
                <mxCell id="vepGdTyIhbDHy5M-trmz-3" value="ssn" style="ellipse;whiteSpace=wrap;html=1;aspect=fixed;fontSize=26;" vertex="1" parent="vepGdTyIhbDHy5M-trmz-1">
                    <mxGeometry x="130" width="80" height="80" as="geometry"/>
                </mxCell>
                <mxCell id="vepGdTyIhbDHy5M-trmz-4" value="&lt;font style=&quot;font-size: 16px&quot;&gt;date_admition&lt;/font&gt;" style="ellipse;whiteSpace=wrap;html=1;aspect=fixed;fontSize=26;" vertex="1" parent="vepGdTyIhbDHy5M-trmz-1">
                    <mxGeometry x="40" y="90" width="100" height="100" as="geometry"/>
                </mxCell>
                <mxCell id="vepGdTyIhbDHy5M-trmz-5" value="age" style="ellipse;whiteSpace=wrap;html=1;aspect=fixed;fontSize=26;" vertex="1" parent="vepGdTyIhbDHy5M-trmz-1">
                    <mxGeometry x="590" y="30" width="80" height="80" as="geometry"/>
                </mxCell>
                <mxCell id="vepGdTyIhbDHy5M-trmz-6" value="&lt;font style=&quot;font-size: 16px&quot;&gt;treatment&lt;/font&gt;" style="ellipse;whiteSpace=wrap;html=1;aspect=fixed;fontSize=26;" vertex="1" parent="vepGdTyIhbDHy5M-trmz-1">
                    <mxGeometry x="590" y="150" width="110" height="110" as="geometry"/>
                </mxCell>
                <mxCell id="vepGdTyIhbDHy5M-trmz-7" value="syptom" style="ellipse;whiteSpace=wrap;html=1;aspect=fixed;fontSize=26;" vertex="1" parent="vepGdTyIhbDHy5M-trmz-1">
                    <mxGeometry x="160" y="200" width="120" height="120" as="geometry"/>
                </mxCell>
                <mxCell id="vepGdTyIhbDHy5M-trmz-27" value="" style="edgeStyle=none;html=1;fontSize=16;endArrow=none;endFill=0;" edge="1" parent="vepGdTyIhbDHy5M-trmz-1" source="vepGdTyIhbDHy5M-trmz-8" target="vepGdTyIhbDHy5M-trmz-12">
                    <mxGeometry relative="1" as="geometry"/>
                </mxCell>
                <mxCell id="vepGdTyIhbDHy5M-trmz-8" value="health_center" style="rounded=0;whiteSpace=wrap;html=1;fontSize=26;" vertex="1" parent="vepGdTyIhbDHy5M-trmz-1">
                    <mxGeometry x="280" y="380" width="240" height="50" as="geometry"/>
                </mxCell>
                <mxCell id="vepGdTyIhbDHy5M-trmz-10" value="name" style="ellipse;whiteSpace=wrap;html=1;aspect=fixed;fontSize=26;" vertex="1" parent="vepGdTyIhbDHy5M-trmz-1">
                    <mxGeometry x="140" y="520" width="120" height="120" as="geometry"/>
                </mxCell>
                <mxCell id="vepGdTyIhbDHy5M-trmz-11" value="floor" style="ellipse;whiteSpace=wrap;html=1;aspect=fixed;fontSize=26;" vertex="1" parent="vepGdTyIhbDHy5M-trmz-1">
                    <mxGeometry x="590" y="510" width="120" height="120" as="geometry"/>
                </mxCell>
                <mxCell id="vepGdTyIhbDHy5M-trmz-23" style="edgeStyle=none;html=1;fontSize=16;endArrow=none;endFill=0;" edge="1" parent="vepGdTyIhbDHy5M-trmz-1" source="vepGdTyIhbDHy5M-trmz-12" target="vepGdTyIhbDHy5M-trmz-10">
                    <mxGeometry relative="1" as="geometry"/>
                </mxCell>
                <mxCell id="vepGdTyIhbDHy5M-trmz-24" style="edgeStyle=none;html=1;entryX=0;entryY=0.5;entryDx=0;entryDy=0;fontSize=16;endArrow=none;endFill=0;" edge="1" parent="vepGdTyIhbDHy5M-trmz-1" source="vepGdTyIhbDHy5M-trmz-12" target="vepGdTyIhbDHy5M-trmz-11">
                    <mxGeometry relative="1" as="geometry"/>
                </mxCell>
                <mxCell id="vepGdTyIhbDHy5M-trmz-25" value="" style="edgeStyle=none;html=1;fontSize=16;endArrow=none;endFill=0;" edge="1" parent="vepGdTyIhbDHy5M-trmz-1" source="vepGdTyIhbDHy5M-trmz-12" target="vepGdTyIhbDHy5M-trmz-13">
                    <mxGeometry relative="1" as="geometry"/>
                </mxCell>
                <mxCell id="vepGdTyIhbDHy5M-trmz-12" value="units" style="ellipse;whiteSpace=wrap;html=1;aspect=fixed;fontSize=26;" vertex="1" parent="vepGdTyIhbDHy5M-trmz-1">
                    <mxGeometry x="340" y="470" width="120" height="120" as="geometry"/>
                </mxCell>
                <mxCell id="vepGdTyIhbDHy5M-trmz-28" value="" style="edgeStyle=none;html=1;fontSize=16;endArrow=none;endFill=0;" edge="1" parent="vepGdTyIhbDHy5M-trmz-1" source="vepGdTyIhbDHy5M-trmz-13" target="vepGdTyIhbDHy5M-trmz-14">
                    <mxGeometry relative="1" as="geometry"/>
                </mxCell>
                <mxCell id="vepGdTyIhbDHy5M-trmz-29" style="edgeStyle=none;html=1;fontSize=16;endArrow=none;endFill=0;" edge="1" parent="vepGdTyIhbDHy5M-trmz-1" source="vepGdTyIhbDHy5M-trmz-13" target="vepGdTyIhbDHy5M-trmz-16">
                    <mxGeometry relative="1" as="geometry"/>
                </mxCell>
                <mxCell id="vepGdTyIhbDHy5M-trmz-30" style="edgeStyle=none;html=1;entryX=0.177;entryY=0.067;entryDx=0;entryDy=0;entryPerimeter=0;fontSize=16;endArrow=none;endFill=0;" edge="1" parent="vepGdTyIhbDHy5M-trmz-1" source="vepGdTyIhbDHy5M-trmz-13" target="vepGdTyIhbDHy5M-trmz-15">
                    <mxGeometry relative="1" as="geometry"/>
                </mxCell>
                <mxCell id="vepGdTyIhbDHy5M-trmz-13" value="doctor" style="ellipse;whiteSpace=wrap;html=1;aspect=fixed;fontSize=26;" vertex="1" parent="vepGdTyIhbDHy5M-trmz-1">
                    <mxGeometry x="340" y="630" width="120" height="120" as="geometry"/>
                </mxCell>
                <mxCell id="vepGdTyIhbDHy5M-trmz-14" value="special" style="ellipse;whiteSpace=wrap;html=1;aspect=fixed;fontSize=26;" vertex="1" parent="vepGdTyIhbDHy5M-trmz-1">
                    <mxGeometry x="340" y="810" width="120" height="120" as="geometry"/>
                </mxCell>
                <mxCell id="vepGdTyIhbDHy5M-trmz-15" value="code" style="ellipse;whiteSpace=wrap;html=1;aspect=fixed;fontSize=26;" vertex="1" parent="vepGdTyIhbDHy5M-trmz-1">
                    <mxGeometry x="585" y="780" width="120" height="120" as="geometry"/>
                </mxCell>
                <mxCell id="vepGdTyIhbDHy5M-trmz-16" value="name" style="ellipse;whiteSpace=wrap;html=1;aspect=fixed;fontSize=26;" vertex="1" parent="vepGdTyIhbDHy5M-trmz-1">
                    <mxGeometry x="140" y="770" width="120" height="120" as="geometry"/>
                </mxCell>
                <mxCell id="vepGdTyIhbDHy5M-trmz-33" value="" style="edgeStyle=none;html=1;fontSize=16;endArrow=none;endFill=0;" edge="1" parent="vepGdTyIhbDHy5M-trmz-1" source="vepGdTyIhbDHy5M-trmz-31" target="vepGdTyIhbDHy5M-trmz-8">
                    <mxGeometry relative="1" as="geometry"/>
                </mxCell>
                <mxCell id="vepGdTyIhbDHy5M-trmz-31" value="visit" style="rhombus;whiteSpace=wrap;html=1;fontSize=16;" vertex="1" parent="vepGdTyIhbDHy5M-trmz-1">
                    <mxGeometry x="350" y="240" width="100" height="80" as="geometry"/>
                </mxCell>
            </root>
        </mxGraphModel>
    </diagram>
    <diagram id="OtiRLBEnTeb5CA6UKius" name="ex2-3">
        <mxGraphModel dx="1128" dy="722" grid="1" gridSize="10" guides="1" tooltips="1" connect="1" arrows="1" fold="1" page="1" pageScale="1" pageWidth="850" pageHeight="1100" math="0" shadow="0">
            <root>
                <mxCell id="wd_4QM-NhHhZQmVNea1g-0"/>
                <mxCell id="wd_4QM-NhHhZQmVNea1g-1" parent="wd_4QM-NhHhZQmVNea1g-0"/>
                <mxCell id="wd_4QM-NhHhZQmVNea1g-2" value="patient" style="swimlane;fontStyle=0;childLayout=stackLayout;horizontal=1;startSize=26;fillColor=none;horizontalStack=0;resizeParent=1;resizeParentMax=0;resizeLast=0;collapsible=1;marginBottom=0;fontSize=16;" vertex="1" parent="wd_4QM-NhHhZQmVNea1g-1">
                    <mxGeometry x="290" y="40" width="240" height="280" as="geometry"/>
                </mxCell>
                <mxCell id="wd_4QM-NhHhZQmVNea1g-3" value="+ id:int&#10;" style="text;strokeColor=none;fillColor=none;align=left;verticalAlign=top;spacingLeft=4;spacingRight=4;overflow=hidden;rotatable=0;points=[[0,0.5],[1,0.5]];portConstraint=eastwest;fontSize=16;" vertex="1" parent="wd_4QM-NhHhZQmVNea1g-2">
                    <mxGeometry y="26" width="240" height="26" as="geometry"/>
                </mxCell>
                <mxCell id="wd_4QM-NhHhZQmVNea1g-4" value="+ f_name:string" style="text;strokeColor=none;fillColor=none;align=left;verticalAlign=top;spacingLeft=4;spacingRight=4;overflow=hidden;rotatable=0;points=[[0,0.5],[1,0.5]];portConstraint=eastwest;fontSize=16;" vertex="1" parent="wd_4QM-NhHhZQmVNea1g-2">
                    <mxGeometry y="52" width="240" height="26" as="geometry"/>
                </mxCell>
                <mxCell id="wd_4QM-NhHhZQmVNea1g-5" value="+ l_name:string&#10;+ ssn:int&#10;+age:int&#10;+date_admition&#10;+treatment:varchar&#10;+syptom:varchar" style="text;strokeColor=none;fillColor=none;align=left;verticalAlign=top;spacingLeft=4;spacingRight=4;overflow=hidden;rotatable=0;points=[[0,0.5],[1,0.5]];portConstraint=eastwest;fontSize=16;" vertex="1" parent="wd_4QM-NhHhZQmVNea1g-2">
                    <mxGeometry y="78" width="240" height="202" as="geometry"/>
                </mxCell>
                <mxCell id="8ZW4ii3flH8wLUtdgT2D-0" value="" style="edgeStyle=none;html=1;fontSize=22;startArrow=baseDash;startFill=0;endArrow=none;endFill=0;" edge="1" parent="wd_4QM-NhHhZQmVNea1g-1" source="zIi9LE9n60od7N0vhitl-0" target="wd_4QM-NhHhZQmVNea1g-5">
                    <mxGeometry relative="1" as="geometry"/>
                </mxCell>
                <mxCell id="8ZW4ii3flH8wLUtdgT2D-1" style="edgeStyle=orthogonalEdgeStyle;html=1;entryX=0.639;entryY=-0.03;entryDx=0;entryDy=0;entryPerimeter=0;fontSize=22;startArrow=baseDash;startFill=0;endArrow=none;endFill=0;" edge="1" parent="wd_4QM-NhHhZQmVNea1g-1" source="zIi9LE9n60od7N0vhitl-0" target="T_UG8oNwEZEzkEfWfGKe-0">
                    <mxGeometry relative="1" as="geometry"/>
                </mxCell>
                <mxCell id="zIi9LE9n60od7N0vhitl-0" value="health_center" style="swimlane;fontStyle=0;childLayout=stackLayout;horizontal=1;startSize=26;fillColor=none;horizontalStack=0;resizeParent=1;resizeParentMax=0;resizeLast=0;collapsible=1;marginBottom=0;fontSize=16;" vertex="1" parent="wd_4QM-NhHhZQmVNea1g-1">
                    <mxGeometry x="290" y="400" width="240" height="78" as="geometry"/>
                </mxCell>
                <mxCell id="zIi9LE9n60od7N0vhitl-1" value="+ id:int&#10;" style="text;strokeColor=none;fillColor=none;align=left;verticalAlign=top;spacingLeft=4;spacingRight=4;overflow=hidden;rotatable=0;points=[[0,0.5],[1,0.5]];portConstraint=eastwest;fontSize=16;" vertex="1" parent="zIi9LE9n60od7N0vhitl-0">
                    <mxGeometry y="26" width="240" height="26" as="geometry"/>
                </mxCell>
                <mxCell id="zIi9LE9n60od7N0vhitl-2" value="+adresse:varchar" style="text;strokeColor=none;fillColor=none;align=left;verticalAlign=top;spacingLeft=4;spacingRight=4;overflow=hidden;rotatable=0;points=[[0,0.5],[1,0.5]];portConstraint=eastwest;fontSize=16;" vertex="1" parent="zIi9LE9n60od7N0vhitl-0">
                    <mxGeometry y="52" width="240" height="26" as="geometry"/>
                </mxCell>
                <mxCell id="uiR7TSalyEU7DHElF1ZA-0" value="health_units" style="swimlane;fontStyle=0;childLayout=stackLayout;horizontal=1;startSize=26;fillColor=none;horizontalStack=0;resizeParent=1;resizeParentMax=0;resizeLast=0;collapsible=1;marginBottom=0;fontSize=16;" vertex="1" parent="wd_4QM-NhHhZQmVNea1g-1">
                    <mxGeometry x="550" y="570" width="240" height="190" as="geometry"/>
                </mxCell>
                <mxCell id="uiR7TSalyEU7DHElF1ZA-1" value="+ id:int&#10;" style="text;strokeColor=none;fillColor=none;align=left;verticalAlign=top;spacingLeft=4;spacingRight=4;overflow=hidden;rotatable=0;points=[[0,0.5],[1,0.5]];portConstraint=eastwest;fontSize=16;" vertex="1" parent="uiR7TSalyEU7DHElF1ZA-0">
                    <mxGeometry y="26" width="240" height="26" as="geometry"/>
                </mxCell>
                <mxCell id="uiR7TSalyEU7DHElF1ZA-2" value="+ name:string&#10;+floor:int&#10;+doctor:string" style="text;strokeColor=none;fillColor=none;align=left;verticalAlign=top;spacingLeft=4;spacingRight=4;overflow=hidden;rotatable=0;points=[[0,0.5],[1,0.5]];portConstraint=eastwest;fontSize=16;" vertex="1" parent="uiR7TSalyEU7DHElF1ZA-0">
                    <mxGeometry y="52" width="240" height="138" as="geometry"/>
                </mxCell>
                <mxCell id="T_UG8oNwEZEzkEfWfGKe-0" value="doctor" style="swimlane;fontStyle=0;childLayout=stackLayout;horizontal=1;startSize=26;fillColor=none;horizontalStack=0;resizeParent=1;resizeParentMax=0;resizeLast=0;collapsible=1;marginBottom=0;fontSize=16;" vertex="1" parent="wd_4QM-NhHhZQmVNea1g-1">
                    <mxGeometry x="20" y="570" width="240" height="114" as="geometry"/>
                </mxCell>
                <mxCell id="T_UG8oNwEZEzkEfWfGKe-1" value="+ id:int&#10;" style="text;strokeColor=none;fillColor=none;align=left;verticalAlign=top;spacingLeft=4;spacingRight=4;overflow=hidden;rotatable=0;points=[[0,0.5],[1,0.5]];portConstraint=eastwest;fontSize=16;" vertex="1" parent="T_UG8oNwEZEzkEfWfGKe-0">
                    <mxGeometry y="26" width="240" height="26" as="geometry"/>
                </mxCell>
                <mxCell id="T_UG8oNwEZEzkEfWfGKe-2" value="+ name:string&#10;+special:string&#10;" style="text;strokeColor=none;fillColor=none;align=left;verticalAlign=top;spacingLeft=4;spacingRight=4;overflow=hidden;rotatable=0;points=[[0,0.5],[1,0.5]];portConstraint=eastwest;fontSize=16;" vertex="1" parent="T_UG8oNwEZEzkEfWfGKe-0">
                    <mxGeometry y="52" width="240" height="62" as="geometry"/>
                </mxCell>
                <mxCell id="8ZW4ii3flH8wLUtdgT2D-2" style="edgeStyle=orthogonalEdgeStyle;html=1;entryX=0.291;entryY=-0.026;entryDx=0;entryDy=0;entryPerimeter=0;fontSize=22;startArrow=baseDash;startFill=0;endArrow=none;endFill=0;" edge="1" parent="wd_4QM-NhHhZQmVNea1g-1" source="zIi9LE9n60od7N0vhitl-2" target="uiR7TSalyEU7DHElF1ZA-0">
                    <mxGeometry relative="1" as="geometry"/>
                </mxCell>
            </root>
        </mxGraphModel>
    </diagram>
    <diagram id="l3UQEagHWcv-i3ruUNJA" name="ex2-4">
        <mxGraphModel dx="1128" dy="722" grid="1" gridSize="10" guides="1" tooltips="1" connect="1" arrows="1" fold="1" page="1" pageScale="1" pageWidth="850" pageHeight="1100" math="0" shadow="0">
            <root>
                <mxCell id="8iQlVrVWgDolajW79PDP-0"/>
                <mxCell id="8iQlVrVWgDolajW79PDP-1" parent="8iQlVrVWgDolajW79PDP-0"/>
                <mxCell id="CURSL_q00u7NOHIxTnO5-0" value="patient" style="swimlane;fontStyle=0;childLayout=stackLayout;horizontal=1;startSize=26;fillColor=none;horizontalStack=0;resizeParent=1;resizeParentMax=0;resizeLast=0;collapsible=1;marginBottom=0;fontSize=16;" vertex="1" parent="8iQlVrVWgDolajW79PDP-1">
                    <mxGeometry x="310" y="20" width="240" height="280" as="geometry"/>
                </mxCell>
                <mxCell id="CURSL_q00u7NOHIxTnO5-1" value="+ id:int&#10;" style="text;strokeColor=none;fillColor=none;align=left;verticalAlign=top;spacingLeft=4;spacingRight=4;overflow=hidden;rotatable=0;points=[[0,0.5],[1,0.5]];portConstraint=eastwest;fontSize=16;" vertex="1" parent="CURSL_q00u7NOHIxTnO5-0">
                    <mxGeometry y="26" width="240" height="26" as="geometry"/>
                </mxCell>
                <mxCell id="CURSL_q00u7NOHIxTnO5-2" value="+ f_name:string" style="text;strokeColor=none;fillColor=none;align=left;verticalAlign=top;spacingLeft=4;spacingRight=4;overflow=hidden;rotatable=0;points=[[0,0.5],[1,0.5]];portConstraint=eastwest;fontSize=16;" vertex="1" parent="CURSL_q00u7NOHIxTnO5-0">
                    <mxGeometry y="52" width="240" height="26" as="geometry"/>
                </mxCell>
                <mxCell id="CURSL_q00u7NOHIxTnO5-3" value="+ l_name:string&#10;+ ssn:int&#10;+age:int&#10;+date_admition&#10;+treatment:varchar&#10;+syptom:varchar&#10;" style="text;strokeColor=none;fillColor=none;align=left;verticalAlign=top;spacingLeft=4;spacingRight=4;overflow=hidden;rotatable=0;points=[[0,0.5],[1,0.5]];portConstraint=eastwest;fontSize=16;" vertex="1" parent="CURSL_q00u7NOHIxTnO5-0">
                    <mxGeometry y="78" width="240" height="202" as="geometry"/>
                </mxCell>
                <mxCell id="CURSL_q00u7NOHIxTnO5-4" value="" style="edgeStyle=none;html=1;fontSize=22;startArrow=baseDash;startFill=0;endArrow=none;endFill=0;" edge="1" source="CURSL_q00u7NOHIxTnO5-6" target="CURSL_q00u7NOHIxTnO5-3" parent="8iQlVrVWgDolajW79PDP-1">
                    <mxGeometry relative="1" as="geometry"/>
                </mxCell>
                <mxCell id="CURSL_q00u7NOHIxTnO5-5" style="edgeStyle=orthogonalEdgeStyle;html=1;entryX=0.639;entryY=-0.03;entryDx=0;entryDy=0;entryPerimeter=0;fontSize=22;startArrow=baseDash;startFill=0;endArrow=none;endFill=0;" edge="1" source="CURSL_q00u7NOHIxTnO5-6" target="CURSL_q00u7NOHIxTnO5-12" parent="8iQlVrVWgDolajW79PDP-1">
                    <mxGeometry relative="1" as="geometry"/>
                </mxCell>
                <mxCell id="CURSL_q00u7NOHIxTnO5-6" value="health_center" style="swimlane;fontStyle=0;childLayout=stackLayout;horizontal=1;startSize=26;fillColor=none;horizontalStack=0;resizeParent=1;resizeParentMax=0;resizeLast=0;collapsible=1;marginBottom=0;fontSize=16;" vertex="1" parent="8iQlVrVWgDolajW79PDP-1">
                    <mxGeometry x="310" y="380" width="240" height="78" as="geometry"/>
                </mxCell>
                <mxCell id="CURSL_q00u7NOHIxTnO5-7" value="+ id:int&#10;" style="text;strokeColor=none;fillColor=none;align=left;verticalAlign=top;spacingLeft=4;spacingRight=4;overflow=hidden;rotatable=0;points=[[0,0.5],[1,0.5]];portConstraint=eastwest;fontSize=16;" vertex="1" parent="CURSL_q00u7NOHIxTnO5-6">
                    <mxGeometry y="26" width="240" height="26" as="geometry"/>
                </mxCell>
                <mxCell id="CURSL_q00u7NOHIxTnO5-8" value="+adresse:varchar" style="text;strokeColor=none;fillColor=none;align=left;verticalAlign=top;spacingLeft=4;spacingRight=4;overflow=hidden;rotatable=0;points=[[0,0.5],[1,0.5]];portConstraint=eastwest;fontSize=16;" vertex="1" parent="CURSL_q00u7NOHIxTnO5-6">
                    <mxGeometry y="52" width="240" height="26" as="geometry"/>
                </mxCell>
                <mxCell id="CURSL_q00u7NOHIxTnO5-35" style="edgeStyle=orthogonalEdgeStyle;html=1;entryX=-0.029;entryY=0.223;entryDx=0;entryDy=0;entryPerimeter=0;fontSize=22;startArrow=baseDash;startFill=0;endArrow=none;endFill=0;" edge="1" parent="8iQlVrVWgDolajW79PDP-1" source="CURSL_q00u7NOHIxTnO5-9" target="CURSL_q00u7NOHIxTnO5-34">
                    <mxGeometry relative="1" as="geometry">
                        <Array as="points">
                            <mxPoint x="480" y="645"/>
                            <mxPoint x="480" y="923"/>
                        </Array>
                    </mxGeometry>
                </mxCell>
                <mxCell id="CURSL_q00u7NOHIxTnO5-9" value="health_units" style="swimlane;fontStyle=0;childLayout=stackLayout;horizontal=1;startSize=26;fillColor=none;horizontalStack=0;resizeParent=1;resizeParentMax=0;resizeLast=0;collapsible=1;marginBottom=0;fontSize=16;" vertex="1" parent="8iQlVrVWgDolajW79PDP-1">
                    <mxGeometry x="570" y="550" width="240" height="190" as="geometry"/>
                </mxCell>
                <mxCell id="CURSL_q00u7NOHIxTnO5-10" value="+ id:int&#10;" style="text;strokeColor=none;fillColor=none;align=left;verticalAlign=top;spacingLeft=4;spacingRight=4;overflow=hidden;rotatable=0;points=[[0,0.5],[1,0.5]];portConstraint=eastwest;fontSize=16;" vertex="1" parent="CURSL_q00u7NOHIxTnO5-9">
                    <mxGeometry y="26" width="240" height="26" as="geometry"/>
                </mxCell>
                <mxCell id="CURSL_q00u7NOHIxTnO5-11" value="+ name:string&#10;+fk_floor:int&#10;+fk_doctor:string" style="text;strokeColor=none;fillColor=none;align=left;verticalAlign=top;spacingLeft=4;spacingRight=4;overflow=hidden;rotatable=0;points=[[0,0.5],[1,0.5]];portConstraint=eastwest;fontSize=16;" vertex="1" parent="CURSL_q00u7NOHIxTnO5-9">
                    <mxGeometry y="52" width="240" height="138" as="geometry"/>
                </mxCell>
                <mxCell id="CURSL_q00u7NOHIxTnO5-12" value="doctor" style="swimlane;fontStyle=0;childLayout=stackLayout;horizontal=1;startSize=26;fillColor=none;horizontalStack=0;resizeParent=1;resizeParentMax=0;resizeLast=0;collapsible=1;marginBottom=0;fontSize=16;" vertex="1" parent="8iQlVrVWgDolajW79PDP-1">
                    <mxGeometry x="40" y="550" width="240" height="114" as="geometry"/>
                </mxCell>
                <mxCell id="CURSL_q00u7NOHIxTnO5-13" value="+ id:int&#10;" style="text;strokeColor=none;fillColor=none;align=left;verticalAlign=top;spacingLeft=4;spacingRight=4;overflow=hidden;rotatable=0;points=[[0,0.5],[1,0.5]];portConstraint=eastwest;fontSize=16;" vertex="1" parent="CURSL_q00u7NOHIxTnO5-12">
                    <mxGeometry y="26" width="240" height="26" as="geometry"/>
                </mxCell>
                <mxCell id="CURSL_q00u7NOHIxTnO5-14" value="+ name:string&#10;+fk_special:string&#10;" style="text;strokeColor=none;fillColor=none;align=left;verticalAlign=top;spacingLeft=4;spacingRight=4;overflow=hidden;rotatable=0;points=[[0,0.5],[1,0.5]];portConstraint=eastwest;fontSize=16;" vertex="1" parent="CURSL_q00u7NOHIxTnO5-12">
                    <mxGeometry y="52" width="240" height="62" as="geometry"/>
                </mxCell>
                <mxCell id="CURSL_q00u7NOHIxTnO5-15" style="edgeStyle=orthogonalEdgeStyle;html=1;entryX=0.291;entryY=-0.026;entryDx=0;entryDy=0;entryPerimeter=0;fontSize=22;startArrow=baseDash;startFill=0;endArrow=none;endFill=0;" edge="1" source="CURSL_q00u7NOHIxTnO5-8" target="CURSL_q00u7NOHIxTnO5-9" parent="8iQlVrVWgDolajW79PDP-1">
                    <mxGeometry relative="1" as="geometry"/>
                </mxCell>
                <mxCell id="CURSL_q00u7NOHIxTnO5-16" value="special" style="swimlane;fontStyle=0;childLayout=stackLayout;horizontal=1;startSize=26;fillColor=none;horizontalStack=0;resizeParent=1;resizeParentMax=0;resizeLast=0;collapsible=1;marginBottom=0;fontSize=16;" vertex="1" parent="8iQlVrVWgDolajW79PDP-1">
                    <mxGeometry x="190" y="780" width="240" height="114" as="geometry"/>
                </mxCell>
                <mxCell id="CURSL_q00u7NOHIxTnO5-17" value="+ id:int&#10;" style="text;strokeColor=none;fillColor=none;align=left;verticalAlign=top;spacingLeft=4;spacingRight=4;overflow=hidden;rotatable=0;points=[[0,0.5],[1,0.5]];portConstraint=eastwest;fontSize=16;" vertex="1" parent="CURSL_q00u7NOHIxTnO5-16">
                    <mxGeometry y="26" width="240" height="26" as="geometry"/>
                </mxCell>
                <mxCell id="CURSL_q00u7NOHIxTnO5-18" value="+ kind:string&#10;" style="text;strokeColor=none;fillColor=none;align=left;verticalAlign=top;spacingLeft=4;spacingRight=4;overflow=hidden;rotatable=0;points=[[0,0.5],[1,0.5]];portConstraint=eastwest;fontSize=16;" vertex="1" parent="CURSL_q00u7NOHIxTnO5-16">
                    <mxGeometry y="52" width="240" height="62" as="geometry"/>
                </mxCell>
                <mxCell id="CURSL_q00u7NOHIxTnO5-19" style="edgeStyle=orthogonalEdgeStyle;html=1;entryX=0.307;entryY=-0.011;entryDx=0;entryDy=0;entryPerimeter=0;fontSize=22;startArrow=baseDash;startFill=0;endArrow=none;endFill=0;" edge="1" parent="8iQlVrVWgDolajW79PDP-1" source="CURSL_q00u7NOHIxTnO5-14" target="CURSL_q00u7NOHIxTnO5-16">
                    <mxGeometry relative="1" as="geometry">
                        <Array as="points">
                            <mxPoint x="20" y="633"/>
                            <mxPoint x="20" y="722"/>
                            <mxPoint x="264" y="722"/>
                        </Array>
                    </mxGeometry>
                </mxCell>
                <mxCell id="CURSL_q00u7NOHIxTnO5-20" style="edgeStyle=orthogonalEdgeStyle;html=1;entryX=1.028;entryY=-0.045;entryDx=0;entryDy=0;entryPerimeter=0;fontSize=22;startArrow=baseDash;startFill=0;endArrow=none;endFill=0;exitX=-0.017;exitY=0.397;exitDx=0;exitDy=0;exitPerimeter=0;" edge="1" parent="8iQlVrVWgDolajW79PDP-1" source="CURSL_q00u7NOHIxTnO5-11" target="CURSL_q00u7NOHIxTnO5-14">
                    <mxGeometry relative="1" as="geometry"/>
                </mxCell>
                <mxCell id="CURSL_q00u7NOHIxTnO5-32" value="floor" style="swimlane;fontStyle=0;childLayout=stackLayout;horizontal=1;startSize=26;fillColor=none;horizontalStack=0;resizeParent=1;resizeParentMax=0;resizeLast=0;collapsible=1;marginBottom=0;fontSize=16;" vertex="1" parent="8iQlVrVWgDolajW79PDP-1">
                    <mxGeometry x="550" y="840" width="240" height="190" as="geometry"/>
                </mxCell>
                <mxCell id="CURSL_q00u7NOHIxTnO5-33" value="+ id:int&#10;" style="text;strokeColor=none;fillColor=none;align=left;verticalAlign=top;spacingLeft=4;spacingRight=4;overflow=hidden;rotatable=0;points=[[0,0.5],[1,0.5]];portConstraint=eastwest;fontSize=16;" vertex="1" parent="CURSL_q00u7NOHIxTnO5-32">
                    <mxGeometry y="26" width="240" height="26" as="geometry"/>
                </mxCell>
                <mxCell id="CURSL_q00u7NOHIxTnO5-34" value="+ name:string&#10;+fk_doctor:string&#10;+fk_special:string" style="text;strokeColor=none;fillColor=none;align=left;verticalAlign=top;spacingLeft=4;spacingRight=4;overflow=hidden;rotatable=0;points=[[0,0.5],[1,0.5]];portConstraint=eastwest;fontSize=16;" vertex="1" parent="CURSL_q00u7NOHIxTnO5-32">
                    <mxGeometry y="52" width="240" height="138" as="geometry"/>
                </mxCell>
            </root>
        </mxGraphModel>
    </diagram>
</mxfile>